<svg xmlns="http://www.w3.org/2000/svg" xmlns:xlink="http://www.w3.org/1999/xlink" viewBox="0 0 687.4 555.02"><defs><style>.cls-1{fill:#6cc;}.cls-2{fill:#fc9;}.cls-3{fill:#f96;}.cls-21,.cls-4,.cls-6{fill:#fff;}.cls-4{opacity:0.5;}.cls-5{fill:#9cf;}.cls-7{fill:#ccf;}.cls-8{fill:url(#Безымянный_градиент_5);}.cls-9{fill:url(#Безымянный_градиент_5-2);}.cls-10{fill:#f39;}.cls-11{fill:#c36;}.cls-12{fill:#ccc;}.cls-13{fill:#369;}.cls-14{fill:#333;}.cls-15{fill:#999;}.cls-16{fill:#336;}.cls-17{fill:#f93;}.cls-18{fill:#3cf;opacity:0.4;}.cls-19{fill:#06c;}.cls-20{fill:#39c;}.cls-21{opacity:0.75;}.cls-22{fill:#9cc;}.cls-23{fill:url(#Безымянный_градиент_4);}.cls-24{fill:#fcc;}.cls-25{fill:#f99;}.cls-26{fill:#f6c;}</style><linearGradient id="Безымянный_градиент_5" x1="479.03" y1="423.08" x2="599.71" y2="423.08" gradientTransform="matrix(-1, 0, 0, 1, 723.53, 0)" gradientUnits="userSpaceOnUse"><stop offset="0" stop-color="#06c"/><stop offset="1" stop-color="#39c"/></linearGradient><linearGradient id="Безымянный_градиент_5-2" x1="265.52" y1="479.28" x2="265.52" y2="319.21" xlink:href="#Безымянный_градиент_5"/><linearGradient id="Безымянный_градиент_4" x1="8214.14" y1="288.3" x2="8203.49" y2="245.08" gradientTransform="translate(-7869.01)" gradientUnits="userSpaceOnUse"><stop offset="0.01" stop-color="#336"/><stop offset="1" stop-color="#369"/></linearGradient></defs><g id="Layer_2" data-name="Layer 2"><g id="Layer_1-2" data-name="Layer 1"><ellipse cx="463.49" cy="479.28" rx="93.43" ry="14.45"/><ellipse cx="522.8" cy="479.28" rx="113.62" ry="7.08"/><ellipse class="cls-1" cx="449.32" cy="384.01" rx="91.56" ry="36.65" transform="translate(-97.36 608.72) rotate(-62.86)"/><path class="cls-2" d="M623.35,257.74c-1,59.69-23.09,107.42-50.25,107.42s-49.3-47.73-50.26-107.42Z"/><path class="cls-2" d="M542.83,413.45c15.44-2.95,24.38-22.93,24.38-47.15,0-1.48,0-2.95-.12-4.39h12c-.08,1.44-.12,2.91-.12,4.39,0,24.22,8.95,44.2,24.39,47.15H542.83Z"/><rect class="cls-3" x="542.83" y="413.45" width="60.54" height="11.26" transform="translate(1146.19 838.16) rotate(-180)"/><path class="cls-2" d="M540.29,424.71H605.9a12.51,12.51,0,0,1,12.51,12.51H527.78A12.52,12.52,0,0,1,540.29,424.71Z"/><path class="cls-3" d="M537.7,257.74C543.49,305.14,563,340,586.25,340c9.42,0,18.24-5.75,25.79-15.75-9.23,25-23.24,40.91-38.94,40.91-27.17,0-49.3-47.73-50.26-107.42Z"/><path class="cls-2" d="M606.09,337.83c24.9-9,44.25-43.32,48.12-86.26H636.87a90.44,90.44,0,0,1-15,29.51c.52-4.56.91-9.24,1.17-14A86.07,86.07,0,0,0,632,245h29.56c-2.69,53-28.19,95.42-60.53,101.43A87.87,87.87,0,0,0,606.09,337.83Z"/><path class="cls-3" d="M540.11,337.83c-24.91-9-44.26-43.32-48.13-86.26h17.35a90.61,90.61,0,0,0,15,29.51c-.52-4.56-.91-9.24-1.17-14A86.41,86.41,0,0,1,514.21,245H484.64c2.69,53,28.2,95.42,60.53,101.43A85.89,85.89,0,0,1,540.11,337.83Z"/><rect class="cls-3" x="522.16" y="437.22" width="101.88" height="42.07" transform="translate(1146.19 916.5) rotate(-180)"/><circle class="cls-4" cx="573.1" cy="301.74" r="23.28" transform="translate(-54.65 142.31) rotate(-13.52)"/><path class="cls-2" d="M564.39,292v-6.9h12.8v26.35h5v6.94H564v-6.94h4.94V292Z"/><path class="cls-5" d="M525.78,479.28c26.37-23.89,40.5-53.36,37.43-76.3-24.1-11.26-63.22-3.41-97.58,21.82-21.56,15.84-37.14,35.51-44.89,54.48Z"/><path class="cls-6" d="M554.56,413.23,520.45,438l24.55,3a1.69,1.69,0,0,1,1.47,1.89,1.69,1.69,0,0,1-1.68,1.48h-.21L516.44,441l-52.67,38.32H458l94.56-68.8a1.7,1.7,0,0,1,2.67,1.64A1.68,1.68,0,0,1,554.56,413.23Z"/><ellipse class="cls-1" cx="210.41" cy="376.46" rx="43.34" ry="91.56" transform="translate(-156.56 149.9) rotate(-29.11)"/><path class="cls-7" d="M264,483a2,2,0,0,0,1.86-1.37,2,2,0,0,0-.14-1.48l-82.41-155,5.85-16.45a1.93,1.93,0,0,0-.07-1.49,2,2,0,0,0-1.11-1,2.06,2.06,0,0,0-.65-.11,2,2,0,0,0-1.83,1.29l-4.66,13.11-9.73-18.29a1.94,1.94,0,0,0-3.57.34,2,2,0,0,0,.14,1.48L195.29,356l-27.45-6.61a2.3,2.3,0,0,0-.45-.05,1.94,1.94,0,0,0-.46,3.83l30.8,7.42L262.29,482A1.91,1.91,0,0,0,264,483Z"/><ellipse cx="267.76" cy="479.28" rx="159.11" ry="21.12"/><path class="cls-8" d="M123.83,479.28c.35-17.32,14.06-29.87,15.09-41.37,1.54-17.22-8.92-29.91-11.16-45.46-2-13.68,7.53-28,26.18-25.24,18.92,2.77,13.88,23.92,29.21,36.69,11.81,9.84,37.44,8.72,49.69,32.78,6.49,12.75,6,28.8,11.66,42.6Z"/><ellipse class="cls-1" cx="364.06" cy="336.89" rx="88.54" ry="36.01" transform="matrix(0.02, -1, 1, 0.02, 21.05, 695.18)"/><ellipse class="cls-7" cx="414.18" cy="331.37" rx="111.41" ry="46.6" transform="translate(-1.41 660.97) rotate(-77.08)"/><path class="cls-6" d="M392.36,428.51a1.94,1.94,0,0,0,1.89-1.51l29.93-130.51,32.31-17.63a1.9,1.9,0,0,0,.93-1.15,1.93,1.93,0,0,0-1.86-2.49,2,2,0,0,0-.93.23l-29.29,16,6.19-27a1.94,1.94,0,0,0,.38-1.64l7.39-32.25a1.94,1.94,0,0,0-1.45-2.32,1.65,1.65,0,0,0-.44-.05,1.93,1.93,0,0,0-1.89,1.51L429,258.3l-7.76-11.23a1.94,1.94,0,0,0-1.6-.83,1.86,1.86,0,0,0-1.1.34,1.94,1.94,0,0,0-.5,2.7l9.78,14.15-7,30.51a1.94,1.94,0,0,0-.59,2.52h0L390.46,426.13a2,2,0,0,0,1.46,2.33A2.12,2.12,0,0,0,392.36,428.51Z"/><path class="cls-9" d="M537,335.86c1.72-8.68-4.78-15.26-13-16.42-9.08-1.28-18.51,2.93-24.29,9.92-6.29,7.61-10.48,23.3-17.3,30.36-16.79,17.37-31.54,7.54-47.87,19.84-14,10.56-8.17,26.09-18.08,41.09-7.85,11.87-30.26,19.75-35.82,38.45a38.59,38.59,0,0,0-.84,20.18H511.58a41.59,41.59,0,0,0,.88-9.18c-.21-16.61-15.86-29.67-2-45.75,4.13-4.79,18.33-11.87,22.19-21.15,6.53-15.71-9.3-31.78-7.78-42.68C526.21,351.12,535.14,345.09,537,335.86Z"/><path class="cls-10" d="M207.66,398H443.45v3.33h-1.6c-3.47,0-4.15,7.52-4.15,16.5,0,8.49.81,16.5,4.42,16.5h1.33v3.33H208.08c-4.61,0-5.79-8.3-5.79-18.61C202.29,408.19,202.91,398,207.66,398Z"/><path class="cls-11" d="M308.21,398H443.45v3.33h-1.6c-3.47,0-4.15,7.52-4.15,16.5,0,8.49.81,16.5,4.42,16.5h1.33v3.33H308.63c-4.26,0-5.66-7.39-5.66-19.33C303,406.52,303.94,398,308.21,398Z"/><path class="cls-12" d="M310.93,401.29H441.85c-3.47,0-4.15,7.52-4.15,16.5,0,8.38.79,16.29,4.29,16.49H311.2c-3.6,0-4.42-8-4.42-16.5C306.78,408.81,307.47,401.29,310.93,401.29Z"/><path class="cls-13" d="M223.34,394.29c2.12,0,3.44-5.38,3.44-12.89,0-6.84-1.36-11.42-3.44-11.42h-2.75v-3.66H453.07c2.45,0,5.11,4.63,5.11,15.82,0,10.81-3,15.82-5.45,15.82H220.59v-3.67Z"/><path class="cls-14" d="M223.34,394.29c2.12,0,3.44-5.38,3.44-12.89,0-6.84-1.36-11.42-3.44-11.42h-2.75v-3.66H347.24V398H220.59v-3.67Z"/><path class="cls-6" d="M226.78,381.4c0-6.84-1.36-11.42-3.44-11.42H451.1c2.08,0,3.43,4.58,3.43,11.42,0,7.51-1.31,12.89-3.43,12.89H223.34C225.46,394.29,226.78,388.91,226.78,381.4Z"/><path class="cls-12" d="M226.78,381.4c0-6.84-1.36-11.42-3.44-11.42H350c2.08,0,3.44,4.58,3.44,11.42,0,7.51-1.32,12.89-3.44,12.89H223.34C225.46,394.29,226.78,388.91,226.78,381.4Z"/><path class="cls-6" d="M319.64,434.29H442c-3.5-.2-4.29-8.11-4.29-16.49,0-2.76.06-5.38.25-7.69-33.8-4.09-79.71-3.75-102.91,6.38C325.22,420.78,318.18,427.53,319.64,434.29Z"/><path class="cls-15" d="M307.84,430.08c.06.22.11.42.18.62H438.94c-.06-.2-.12-.4-.18-.62Z"/><path class="cls-15" d="M307.13,425.88c0,.21,0,.42.07.62H438.12c0-.2-.05-.41-.07-.62Z"/><path class="cls-15" d="M306.85,421.68c0,.21,0,.41,0,.62H437.79l0-.62Z"/><rect class="cls-15" x="306.78" y="417.48" width="130.92" height="0.62"/><path class="cls-13" d="M211.17,326.75H439.62v4.36h-1.41c-3.7,0-4.36,9.08-4.36,15.42S434.5,362,438.21,362h1.41v4.37H211.17c-4.77,0-5.06-11.64-5.06-19.79S206.4,326.75,211.17,326.75Z"/><path class="cls-16" d="M290.24,326.75H439.62v4.36h-1.41c-3.7,0-4.36,9.08-4.36,15.42S434.5,362,438.21,362h1.41v4.37H290.24c-4.77,0-6.2-11.64-6.2-19.79S285.47,326.75,290.24,326.75Z"/><path class="cls-12" d="M292.69,331.11H438.21c-3.7,0-4.36,9.08-4.36,15.42S434.5,362,438.21,362H292.69c-3.71,0-4.36-9.07-4.36-15.42S289,331.11,292.69,331.11Z"/><path class="cls-10" d="M447.76,291.55H223.34v3.88h1.39c3.63,0,4.28,8.07,4.28,13.72s-.63,13.71-4.28,13.71h-1.39v3.89H447.76c4.68,0,5-10.36,5-17.6S452.44,291.55,447.76,291.55Z"/><path class="cls-11" d="M362.19,291.55H223.34v3.88h1.39c3.63,0,4.28,8.07,4.28,13.72s-.63,13.71-4.28,13.71h-1.39v3.89H362.19c4.68,0,6.08-10.36,6.08-17.6S366.87,291.55,362.19,291.55Z"/><path class="cls-12" d="M359.78,295.43h-135c3.63,0,4.28,8.07,4.28,13.72s-.63,13.71-4.28,13.71h135c3.64,0,4.28-8.07,4.28-13.71S363.41,295.43,359.78,295.43Z"/><path class="cls-2" d="M217.31,398h17.76c-4.75,0-5.37,10.23-5.37,21.05,0,10.31,1.18,18.61,5.79,18.61H217.73c-4.61,0-5.79-8.3-5.79-18.61C211.94,408.19,212.56,398,217.31,398Z"/><path class="cls-6" d="M302.13,362H438.21c-3.71,0-4.36-9.07-4.36-15.42,0-2.09.07-4.48.3-6.73-38.53-3.22-88.46-2.59-114.2,6.16C308.59,349.81,300.45,355.88,302.13,362Z"/><path class="cls-7" d="M149.63,479.28h77.8c-3.33-19.75-25.94-42.32-58.07-55.62-32.32-13.38-64.46-13.31-80.68-1.48,3.12,19.83,25.81,42.59,58.12,56C147.75,478.54,148.69,478.92,149.63,479.28Z"/><path class="cls-6" d="M212.71,480l.3-1.34-46.92-22-5.2-36.92-.41-.14c-.7-.24-1.41-.47-2.11-.69l-1.07-.34,5.12,36.37-8.52-4-4-28.39a1.71,1.71,0,0,0-1.68-1.46l-.24,0a1.7,1.7,0,0,0-1.44,1.91l3.71,26.2L94.64,423.1a1.64,1.64,0,0,0-.72-.16,1.7,1.7,0,0,0-.73,3.23l30.17,14.15-13.68,4.44a1.67,1.67,0,0,0-1,.84,1.69,1.69,0,0,0,1.51,2.47,2,2,0,0,0,.5-.08l17.14-5.56,80,37.56Z"/><path class="cls-16" d="M190.74,475.45c4.25,0,4.69-9.66,4.69-17,0-9.32-.46-17-4.69-17h-1.27v-3.83H460.2c3.15,0,5.82,7.56,5.82,20.83,0,11.21-1.57,20.83-5.82,20.83H189.47v-3.83Z"/><path class="cls-14" d="M190.74,475.45c4.25,0,4.69-9.66,4.69-17,0-9.32-.46-17-4.69-17h-1.27v-3.83H369.65c3.15,0,5.82,7.56,5.82,20.83,0,11.21-1.58,20.83-5.82,20.83H189.47v-3.83Z"/><path class="cls-12" d="M195.43,458.45c0-9.32-.46-17-4.69-17h175c4.23,0,5.35,7.68,5.35,17,0,7.34-1.1,17-5.35,17h-175C195,475.45,195.43,465.79,195.43,458.45Z"/><path class="cls-6" d="M190.74,475.45H339.58c2.32-3,.26-10.4-8.43-13.07C295,451.28,237,448.33,195.42,457c0,.47,0,1,0,1.43C195.43,465.79,195,475.45,190.74,475.45Z"/><path class="cls-15" d="M194.18,471.74H346.36a6.18,6.18,0,0,0,.12-.62H194.36Z"/><path class="cls-15" d="M195,467.41H346.59c0-.2,0-.41-.09-.61H195.09C195.07,467,195.05,467.21,195,467.41Z"/><ellipse cx="251.09" cy="550.63" rx="130.38" ry="4.39"/><path d="M0,506.21c0,2.19,43.47,4,97.09,4s97.09-1.78,97.09-4-43.47-4-97.09-4S0,504,0,506.21Z"/><rect class="cls-17" x="95.45" y="421.99" width="37.47" height="131.53" transform="translate(-373.56 601.94) rotate(-90)"/><polygon class="cls-2" points="9.94 487.75 48.42 506.49 48.42 469.02 9.94 487.75"/><polygon class="cls-16" points="22.28 481.75 9.94 487.75 22.28 493.76 22.28 481.75"/><rect class="cls-6" x="113.57" y="431.59" width="1.25" height="131.53" transform="translate(-383.17 611.55) rotate(-90)"/><rect class="cls-6" x="113.57" y="412.38" width="1.25" height="131.53" transform="translate(-363.96 592.34) rotate(-90)"/><path class="cls-13" d="M211.46,445.78H200.7a52.58,52.58,0,0,0,0,105.16h10.76a52.58,52.58,0,0,0,0-105.16Zm-5.38,98.16a45.9,45.9,0,0,1,0-91.17,45.9,45.9,0,0,1,0,91.17Z"/><circle class="cls-18" cx="206.08" cy="498.36" r="45.9" transform="translate(-292.03 291.69) rotate(-45)"/><path class="cls-16" d="M200.7,445.78a52.58,52.58,0,1,0,52.58,52.58A52.58,52.58,0,0,0,200.7,445.78Zm0,98.48a45.9,45.9,0,1,1,45.9-45.9A45.9,45.9,0,0,1,200.7,544.26Z"/><polygon class="cls-19" points="371.15 550.11 254.57 517.5 257.64 506.04 374.9 536.12 371.15 550.11"/><path class="cls-19" d="M259.47,512.67c-.86,3.19-3.06,5.35-4.9,4.83s-2.63-3.48-1.79-6.62,3-5.32,4.86-4.84S260.32,509.48,259.47,512.67Z"/><path class="cls-20" d="M378,544.46c-1,3.89-4.14,6.42-6.89,5.64s-4.1-4.48-3.07-8.32,4.07-6.37,6.82-5.67S379.09,540.56,378,544.46Z"/><path class="cls-21" d="M201.76,460.65c-3,4.64,3.51,11.29,12.91,17.37s18.13,9.28,21.13,4.64-1-15.16-10.4-21.23S204.75,456,201.76,460.65Z"/><path class="cls-1" d="M530.19,334.88c-5.19,3.27-14.84,9.36-15.28,24.2A85.41,85.41,0,0,0,516,373.45c1.4,10.33,2.72,20.09-5,31.88-4.24,6.44-10.63,11.07-16.82,15.55-8.17,5.92-15.88,11.51-18.13,20.63-1.93,7.82-.16,16.81,1.55,25.56.83,4.25,1.62,8.33,2,12.21h-5.32c-.37-3.52-1.1-7.3-1.87-11.24-1.82-9.27-3.69-18.85-1.49-27.8,2.71-11,11.58-17.42,20.17-23.64,5.8-4.21,11.8-8.56,15.5-14.18,6.65-10.13,5.51-18.53,4.19-28.25v-.05a89.8,89.8,0,0,1-1.14-15.2c.46-15.52,8.81-22.88,17.76-28.52a2.61,2.61,0,0,1,1.41-.41,2.65,2.65,0,0,1,1.4,4.89Z"/><path class="cls-2" d="M444.84,437.62H426.18c5,0,5.65,10.74,5.65,22.12,0,10.82-1.24,19.54-6.09,19.54H444.4c4.85,0,6.09-8.72,6.09-19.54C450.49,448.36,449.83,437.62,444.84,437.62Z"/><circle class="cls-6" cx="478.99" cy="322.73" r="4.35" transform="translate(-61.18 118.28) rotate(-13.24)"/><path class="cls-6" d="M448.38,261.27a3.53,3.53,0,1,0,3.53-3.53A3.52,3.52,0,0,0,448.38,261.27Z"/><polygon class="cls-2" points="658.17 206.64 653.43 210.9 647.24 209.41 649.82 215.23 646.49 220.66 652.83 220 656.97 224.84 658.29 218.62 664.18 216.18 658.67 212.99 658.17 206.64"/><polygon class="cls-2" points="567.25 173.28 563.76 180.76 555.62 182.12 561.65 187.76 560.43 195.92 567.65 191.93 575.04 195.61 573.47 187.5 579.26 181.62 571.07 180.6 567.25 173.28"/><polygon class="cls-2" points="503.98 216.89 508.99 221.4 515.54 219.82 512.81 225.98 516.33 231.73 509.63 231.03 505.25 236.16 503.84 229.56 497.62 226.99 503.45 223.61 503.98 216.89"/><circle class="cls-2" cx="607" cy="236.15" r="7.18" transform="translate(157.99 707.97) rotate(-67.68)"/><circle class="cls-2" cx="621.62" cy="176.44" r="4.83"/><circle class="cls-2" cx="682.57" cy="266.36" r="4.83"/><circle class="cls-12" cx="527.41" cy="202.6" r="4.83"/><circle class="cls-12" cx="557.66" cy="237.08" r="6.25"/><circle class="cls-12" cx="664.18" cy="301.21" r="3.8"/><circle class="cls-12" cx="597.23" cy="207.88" r="3.8"/><circle class="cls-12" cx="592.23" cy="114.57" r="3.8"/><circle class="cls-7" cx="513.01" cy="467.41" r="4.11"/><circle class="cls-6" cx="455.29" cy="357.28" r="2.73"/><path class="cls-7" d="M462.74,424a3,3,0,1,0,3-3A3,3,0,0,0,462.74,424Z"/><circle class="cls-6" cx="525.53" cy="411.34" r="2.73"/><circle class="cls-6" cx="141.26" cy="405.85" r="3.08"/><path class="cls-6" d="M224.73,322.86H353.3c2-2.82.23-9.94-7.36-12.49C314.83,299.9,265,297,228.87,304.92c.1,1.45.14,2.91.14,4.23C229,314.79,228.37,322.86,224.73,322.86Z"/><path class="cls-15" d="M227.93,319.28H358c0-.21,0-.41,0-.62H228.11Z"/><path class="cls-15" d="M228.72,315.08h128.6a6.62,6.62,0,0,0-.24-.62H228.79C228.77,314.67,228.75,314.87,228.72,315.08Z"/><path class="cls-15" d="M229,310.87H354.92c-.17-.21-.35-.41-.53-.61H229C229,310.46,229,310.66,229,310.87Z"/><rect class="cls-16" x="184.98" y="60.7" width="289.57" height="183.65" rx="3.13" transform="translate(659.52 305.05) rotate(-180)"/><rect class="cls-16" x="180.95" y="60.7" width="289.57" height="183.65" rx="3.13" transform="translate(651.46 305.05) rotate(-180)"/><rect class="cls-6" x="184.98" y="64.73" width="281.51" height="175.59" rx="1.33" transform="translate(651.46 305.05) rotate(-180)"/><rect class="cls-18" x="248.57" y="87.13" width="205.98" height="115.57" transform="translate(703.12 289.84) rotate(-180)"/><rect class="cls-12" x="285.76" y="209.96" width="168.79" height="4.15" transform="translate(740.3 424.07) rotate(-180)"/><rect class="cls-12" x="416.39" y="217.08" width="38.15" height="4.15" transform="translate(870.94 438.31) rotate(-180)"/><rect class="cls-12" x="248.57" y="217.08" width="29.17" height="4.15" transform="translate(526.31 438.31) rotate(-180)"/><rect class="cls-18" x="196.92" y="87.13" width="39.71" height="22.28" transform="translate(433.55 196.55) rotate(-180)"/><path class="cls-6" d="M215.68,98.28l1.76-1v2Zm-2.12-1.42v2.83a.4.4,0,0,0,.4.4h5.62a.4.4,0,0,0,.41-.4V96.86a.4.4,0,0,0-.41-.4H214A.4.4,0,0,0,213.56,96.86Z"/><rect class="cls-18" x="196.92" y="118.23" width="39.71" height="22.28"/><path class="cls-6" d="M215.68,129.37l1.76-1v2ZM213.56,128v2.83a.4.4,0,0,0,.4.4h5.62a.4.4,0,0,0,.41-.4V128a.41.41,0,0,0-.41-.41H214A.4.4,0,0,0,213.56,128Z"/><rect class="cls-18" x="196.92" y="149.33" width="39.71" height="22.28"/><path class="cls-6" d="M215.68,160.47l1.76-1v2Zm-2.12-1.42v2.83a.4.4,0,0,0,.4.4h5.62a.4.4,0,0,0,.41-.4v-2.83a.4.4,0,0,0-.41-.4H214A.4.4,0,0,0,213.56,159.05Z"/><rect class="cls-18" x="196.92" y="180.42" width="39.71" height="22.28" transform="translate(433.55 383.13) rotate(-180)"/><path class="cls-6" d="M215.68,191.56l1.76-1v2Zm-2.12-1.41V193a.4.4,0,0,0,.4.4h5.62a.4.4,0,0,0,.41-.4v-2.83a.4.4,0,0,0-.41-.4H214A.4.4,0,0,0,213.56,190.15Z"/><rect class="cls-18" x="196.92" y="211.52" width="39.71" height="20.53"/><path class="cls-6" d="M215.68,222.66l1.76-1v2Zm-2.12-1.42v2.83a.4.4,0,0,0,.4.41h5.62a.41.41,0,0,0,.41-.41v-2.83a.4.4,0,0,0-.41-.4H214A.4.4,0,0,0,213.56,221.24Z"/><path class="cls-16" d="M186.29,232H465.18a1.3,1.3,0,0,1,1.3,1.3v7a0,0,0,0,1,0,0H185a0,0,0,0,1,0,0v-7A1.31,1.31,0,0,1,186.29,232Z" transform="translate(651.46 472.37) rotate(-180)"/><rect class="cls-12" x="416.39" y="75.73" width="38.15" height="4.15" transform="translate(870.94 155.61) rotate(-180)"/><path class="cls-22" d="M185,64.73H466.49a0,0,0,0,1,0,0v4.84a1.3,1.3,0,0,1-1.3,1.3H186.29A1.31,1.31,0,0,1,185,69.56V64.73A0,0,0,0,1,185,64.73Z" transform="translate(651.46 135.61) rotate(-180)"/><rect class="cls-12" x="281.77" y="217.08" width="29.17" height="4.15" transform="translate(592.71 438.31) rotate(-180)"/><rect class="cls-12" x="335.11" y="217.08" width="16.45" height="4.15" transform="translate(686.67 438.31) rotate(-180)"/><rect class="cls-12" x="316.32" y="217.08" width="16.45" height="4.15" transform="translate(649.1 438.31) rotate(-180)"/><polygon class="cls-16" points="367.85 244.35 316.32 244.35 317.68 291.55 382.72 291.55 367.85 244.35"/><rect class="cls-16" x="251.09" y="287.52" width="107.13" height="4.03"/><polygon class="cls-23" points="376.87 287.52 363.28 244.35 311.75 244.35 312.99 287.52 376.87 287.52"/><path class="cls-13" d="M318.1,84.73c15.78-6.32,41.81-6.65,61.86-1.61,17.28,4.35,17,16.85,16.73,21.59-1.49,23.32-7.11,98-7.11,98H309.39s-10.61-68.44-8.77-98.55C301.13,95.66,298.06,92.78,318.1,84.73Z"/><path class="cls-13" d="M261.35,179.54l75.13-75.38-10.84-9.07c-10.14-7.45-22.56-4.23-33.81,5.51-9.43,8.17-19.17,22.93-22.53,27.65-8.24,11.57-31.62,43.5-31.62,43.5l8.15,7.28C250.55,183.23,257.35,183.46,261.35,179.54Z"/><path class="cls-13" d="M439.21,186.62c-.88-19.83-10.33-56.62-21.78-76.34C406.24,91,384.17,81.29,379.29,86c-2.74,2.64-2.25,7.18-.49,13.29,5,17.26,28,74.71,37.42,86.79,5.29,6.76,10.65,18.44,17.91,13.14C437.18,197,439.54,194.06,439.21,186.62Z"/><polygon class="cls-6" points="288.81 150.55 333.01 150.55 347.03 202.7 302.83 202.7 288.81 150.55"/><path class="cls-24" d="M333.68,80.55h1.95a3.18,3.18,0,0,0,3.15-2.72,100.5,100.5,0,0,0,.92-14.06,127.47,127.47,0,0,0-1.95-22.37h28V76a4.58,4.58,0,0,0,4.58,4.58H371c0,9.86-14.43,15.6-25.07,15.6S329.34,87.69,333.68,80.55Z"/><path class="cls-6" d="M409,187.91c4.3,3.89,28.07,10.87,32.57,3.48,2.89-4.76,1.87-15.57-.46-18.86-5-7.06-27.87-4.25-34.36,1.48C403.74,176.67,405.54,184.77,409,187.91Z"/><path class="cls-6" d="M243.16,156.8c-.6,6.13,16.11,24.5,24.06,21.07,4.27-1.84,12.23-8.07,12.35-12.1.27-8.65-17.81-20.61-26.47-21.71C249.11,143.55,243.55,152.79,243.16,156.8Z"/><path class="cls-24" d="M161.09,111.73c.64-1.59,7.48,4.71,11.38,7.34,1.74,1.18,3.5,1.19,5.47,1.13,2.36-.08,4.89-.28,6.62-.42,1.25-.1,2.1-.39,2-.89-.15-.8-.16-1.18-1.6-1.86-1.69-.8-6.09-1.59-7.26-2.51s-1-1.39.32-1.22c2.16.28,7.21.73,10.76,1.88a15.69,15.69,0,0,1,4.86,2.8c2.28,1.75,3.43,3.43,5,5l66.65,42.9a5.32,5.32,0,0,1,1.26,7.81l-3.74,4.61a12.4,12.4,0,0,1-18.26,1s-37-36.67-49.87-48.44a8.51,8.51,0,0,0-4-1.69c-6.37-1.54-13.91-.92-17.09-2.78C170.11,124.32,160.43,113.37,161.09,111.73Z"/><path class="cls-24" d="M329.34,43.68c0,5.19,1.2,7.69,3,11.65,3,6.41,6,10.55,11.58,10.55,9.05,0,18.86-11,18.86-24.57S355.42,16.73,344,16.73c-10.12,0-12.64,4.7-13.18,15.57C330.59,35.83,329.34,39.64,329.34,43.68Z"/><path class="cls-16" d="M373.6,18.49c-.84-6.36-4.79-11.25-10.24-9.53a12.68,12.68,0,0,0-8.16-7.65c-5.16-1.8-14.71-1.93-23.59.81-5.07,1.57-7.34,4.69-1.08,4a20.8,20.8,0,0,0-7.45,5.34c-1.52,1.78-4,7.24,1.62,7.09-1.95,5.24,1.8,9.48,4.72,11.48,1,.71,1.6.65,1.67-.76.26-5,1.11-7.63,5.22-9.39,3.9-1.67,12.78-1.5,18.76,2.26,6.18,3.89,6.13,15.06,5.64,18.62-.16,1.2-4.24,6.61-9.7,6.61-2.5,0-6.81-1.88-10.09-1.88-3,0-4.33,1.49-6.67,1.49-3.5,0-3.46-5.08-4.17-5.36-1.52-.61-4.88,6.14-4.88,16.46,0,8.78,6.41,17,14.46,17,9.32,0,15.11-3.51,19.36-8.75,5.13-6.33,5.89-15.13,4.93-23.16a26.75,26.75,0,0,0,5.57-6.1C372.52,31.77,374.39,24.5,373.6,18.49Z"/><path class="cls-25" d="M372,43.22c-.64,4.71-4.42,9.33-6.74,8.61-1.88-.59-2-3.86-1.86-8.61.1-4.48.7-8.61,3.51-8.61S372.74,37.56,372,43.22Z"/><path class="cls-6" d="M347.09,52.37c0,.39-2.49,1.36-5.57,1.36S336,52.63,336,52.09c0-.35,2.5-.1,5.57-.1S347.09,51.92,347.09,52.37Z"/><path class="cls-16" d="M341.26,46l0-.48-.6,0c-1.3-.05-2.77-.11-3.55-.84-.44-.41-.43-1.18,0-2.33l.1-.26c.69-1.75,2.16-5.38,1.6-7.69A3,3,0,0,0,337,32.19c-2.15-.68-4.48,0-6.64,1l.2.43c2.08-1,5.26-1.38,7-.34a2,2,0,0,1,.86,1.17c.5,2.17-.9,5.7-1.57,7.4l-.11.26c-.53,1.36-.5,2.3.11,2.86.9.85,2.47.91,3.85,1Z"/><path class="cls-16" d="M355.61,33.59l.16-.52A28.68,28.68,0,0,0,348.93,32h0A12.47,12.47,0,0,0,343.65,33l-.09,0,.2.5.09,0a11.8,11.8,0,0,1,5-1h0A27.73,27.73,0,0,1,355.61,33.59Z"/><path class="cls-16" d="M347.09,36.88c0,.84.51,1.52,1.13,1.52s1.12-.68,1.12-1.52-.5-1.52-1.12-1.52S347.09,36,347.09,36.88Z"/><ellipse class="cls-16" cx="333.36" cy="36.88" rx="1.13" ry="1.52"/><path class="cls-16" d="M355.58,33.58l.21-.5a17.12,17.12,0,0,0-6.86-1.37,9,9,0,0,0-5.42,1.4l.31.45a8.49,8.49,0,0,1,5.11-1.31A16.43,16.43,0,0,1,355.58,33.58Z"/><path class="cls-6" d="M348.6,35.87c-.24.29-.3.64-.13.78s.5,0,.74-.28.3-.63.13-.77S348.84,35.58,348.6,35.87Z"/><path class="cls-6" d="M333.74,35.87c-.24.29-.3.64-.13.78s.5,0,.74-.28.3-.63.13-.77S334,35.58,333.74,35.87Z"/><path class="cls-16" d="M351.7,37l.34-.37c-2.83-2.58-4.94-1.36-5.72-.71l.32.38C347.48,35.62,349.26,34.78,351.7,37Z"/><path class="cls-16" d="M335.22,36.9l.44-.27c-.86-1.39-1.8-1.62-2.43-1.57a2.62,2.62,0,0,0-1.94,1.23l.49.2a2.15,2.15,0,0,1,1.49-.92C334,35.52,334.64,36,335.22,36.9Z"/><path class="cls-24" d="M330,180.44a5.22,5.22,0,0,0,2.36,0c4.78-1.08,9.41-1.78,9.41-1.78s-.57-.31-1.35-.78l-1.12-4.14c2.76-.12,5.62-.08,7.86.84,1.66.68,4.28,2.19,6.89,3.34a9.47,9.47,0,0,0,3.36.77l74.44,2.91a8.11,8.11,0,0,1,7.67,9.19A13.38,13.38,0,0,1,423.2,202s-48.14-11.45-62.75-14.57a21.77,21.77,0,0,0-7.79-.09c-5.7,1.21-14.26,3.84-17.5,3.34s-8.74-2.94-11.5-4.65c-2.28-1.22-5.58-2.69-6-4.43a6.21,6.21,0,0,1-.2-3C317.83,177.51,325.35,179.3,330,180.44Z"/><path class="cls-6" d="M329.76,82.35A6.77,6.77,0,0,1,335.47,79c2.09,0-.09.44-.85,3.65-1.08,4.62,3.32,9.45,10.81,12.47,5.86-.77,17.38-9.53,23.4-16.48a3.32,3.32,0,0,1,5,1.66c2.92,10.88-14.27,21.56-22.13,26.77L345,96.54l-10,7.72c-3.18-3.48-6.07-9.12-6.57-13.81A15.12,15.12,0,0,1,329.76,82.35Z"/><path class="cls-25" d="M337.8,79.7c11.54,4.09,19.9-4.67,23.4-10.44,2.55-4.2,4.18-8,4.55-12.33a44.47,44.47,0,0,0,0-6.73c-.12-1.78-.31-3.54-.52-5.25.17-.14.34-.28.52-.41v-3c-.58.57-1.19,1.11-1.8,1.61,1,8,.21,16.83-4.93,23.16-4.25,5.24-10,8.75-19.36,8.75h-.54c-.11,1-.22,2-.34,2.79A3.19,3.19,0,0,1,337.8,79.7Z"/><rect class="cls-4" x="254.3" y="190.67" width="194.53" height="2.51" transform="translate(703.12 383.85) rotate(-180)"/><rect class="cls-12" x="342.37" y="190.67" width="106.45" height="2.51" transform="translate(791.19 383.85) rotate(-180)"/><rect class="cls-26" x="367.64" y="190.67" width="81.18" height="2.51" transform="translate(816.46 383.85) rotate(-180)"/><path class="cls-6" d="M435.23,198.22l3.71,2.14a.33.33,0,0,0,.5-.29v-4.29a.33.33,0,0,0-.5-.28l-3.71,2.14A.34.34,0,0,0,435.23,198.22Z"/><rect class="cls-6" x="447.36" y="195.28" width="1.46" height="5.31" rx="0.33" transform="translate(896.19 395.86) rotate(-180)"/><rect class="cls-6" x="444.92" y="195.28" width="1.46" height="5.31" rx="0.33" transform="translate(891.29 395.86) rotate(-180)"/><rect class="cls-6" x="424.74" y="195.28" width="5.31" height="5.31" rx="0.33" transform="translate(854.79 395.86) rotate(-180)"/></g></g></svg>