<svg xmlns="http://www.w3.org/2000/svg" viewBox="0 50 1366 200.67"><defs><style>.cls-1{fill:#4befb0;}</style></defs><g id="Layer_2" data-name="Layer 2"><g id="Layer_1-2" data-name="Layer 1"><path d="M1366,0V183.66a155,155,0,0,1-17.73,12.64c-127,77.55-488.74,40.6-663.55,12.39s-321-5.34-543.65,25.25C88.3,241.19,41.18,242.18,0,239.46V0Z"/><path class="cls-1" d="M1278.52,175.33l-.12.06c-.36.23-36.58,22.63-103.59,39.64-61.86,15.69-163.34,29.86-295.56,8.26l-36.79-6C725.76,198.11,625,181.58,530.89,173.37c-43.07-3.76-83.88-5.65-123.43-5.65a1154.08,1154.08,0,0,0-156,10.4C207.05,184.14,112.38,195.69,0,202v2c112.5-6.36,207.28-17.93,251.74-23.94,192.83-26.1,351-.15,590.4,39.12l36.79,6a828.14,828.14,0,0,0,133.33,11.13q18.95,0,37.52-.95a646.21,646.21,0,0,0,125.62-18.5c66-16.76,102.29-38.76,104-39.81a309.89,309.89,0,0,0,86.6-58V116.4A307.73,307.73,0,0,1,1278.52,175.33Z"/></g></g></svg>