<svg xmlns="http://www.w3.org/2000/svg" viewBox="0 0 288.58 53.28"><g id="Layer_2" data-name="Layer 2"><g id="Layer_1-2" data-name="Layer 1"><polygon points="286.46 0 249.39 53.28 251.51 53.28 288.58 0 286.46 0"/><polygon points="267.28 0 230.21 53.28 232.32 53.28 269.39 0 267.28 0"/><polygon points="248.09 0 211.02 53.28 213.14 53.28 250.21 0 248.09 0"/><polygon points="228.91 0 191.84 53.28 193.96 53.28 231.03 0 228.91 0"/><polygon points="209.72 0 172.65 53.28 174.77 53.28 211.84 0 209.72 0"/><polygon points="190.54 0 153.47 53.28 155.59 53.28 192.66 0 190.54 0"/><polygon points="171.36 0 134.29 53.28 136.4 53.28 173.47 0 171.36 0"/><polygon points="152.17 0 115.1 53.28 117.22 53.28 154.29 0 152.17 0"/><polygon points="132.99 0 95.92 53.28 98.04 53.28 135.11 0 132.99 0"/><polygon points="113.81 0 76.73 53.28 78.85 53.28 115.92 0 113.81 0"/><polygon points="94.62 0 57.55 53.28 59.67 53.28 96.74 0 94.62 0"/><polygon points="75.44 0 38.37 53.28 40.48 53.28 77.56 0 75.44 0"/><polygon points="56.25 0 19.18 53.28 21.3 53.28 58.37 0 56.25 0"/><polygon points="37.07 0 0 53.28 2.12 53.28 39.19 0 37.07 0"/></g></g></svg>