<svg xmlns="http://www.w3.org/2000/svg" viewBox="0 0 1113.72 779.49"><g id="Layer_2" data-name="Layer 2"><g id="Layer_1-2" data-name="Layer 1"><path d="M278.25,0c1.67,0,3.35,0,5,.07C313.15.92,343,9.42,372,25.34l18.19,10c118.24,65,196.35,108,304.63,91.69,35.87-5.39,129.31-16.45,222.09-2.78,43,6.33,79.43,17.23,108.33,32.38,33.53,17.58,57.15,41.06,70.21,69.79,16.08,35.37,21.89,89.8,16,149.33-4.72,47.39-19,119.28-60.33,192.68-46.6,82.81-139.23,185.94-315.92,207.07C497.52,803.9,333.49,675.09,213.72,581,153,533.33,105,495.64,63.56,489.9c-29.09-4-49.21-25.23-58.18-61.32C-6.95,379,2.2,304.17,29.84,228.42,58.62,149.55,101.54,85.25,147.61,52c1.22-1.19,25.55-24.58,64.46-39.47A184.34,184.34,0,0,1,278.25,0ZM650.6,132c-34.63,0-69-6.3-105.41-19.15-48.2-17-98-44.39-155.73-76.12l-18.19-10c-33.82-18.54-65.44-25-93.12-25A183.33,183.33,0,0,0,212.7,14c-39.43,15.08-63.76,39-64,39.19l-.1.08C102.77,86.33,60,150.37,31.35,229,3.82,304.44-5.31,378.91,6.94,428.19c8.8,35.4,28.46,56.19,56.84,60.12,41.86,5.8,90,43.6,150.94,91.46C334.26,673.65,498,802.23,735,773.89c176-21,268.3-123.78,314.71-206.26,41.17-73.16,55.43-144.82,60.13-192,5.91-59.26.15-113.39-15.81-148.5-24.29-53.42-83.95-87.48-177.32-101.25-92.56-13.64-185.81-2.6-221.61,2.78A298,298,0,0,1,650.6,132Z"/></g></g></svg>