<svg xmlns="http://www.w3.org/2000/svg" viewBox="0 0 1113.72 779.49"><g id="Layer_2" data-name="Layer 2"><g id="Layer_1-2" data-name="Layer 1"><path d="M835.47,779.49c-1.67,0-3.35,0-5-.07-29.88-.85-59.74-9.35-88.77-25.26l-18.19-10c-118.24-65-196.35-108-304.63-91.69-35.87,5.39-129.31,16.45-222.09,2.78-43-6.34-79.43-17.23-108.33-32.39-33.53-17.58-57.15-41.06-70.21-69.79-16.08-35.36-21.89-89.79-16-149.33C7,356.37,21.3,284.47,62.61,211.07,109.2,128.27,201.83,25.13,378.53,4,616.22-24.41,780.23,104.4,900,198.46c60.75,47.71,108.73,85.39,150.16,91.13,29.09,4,49.21,25.24,58.18,61.33,12.33,49.58,3.18,124.4-24.46,200.16-28.77,78.87-71.7,143.17-117.77,176.42-1.22,1.19-25.55,24.58-64.45,39.48A184.6,184.6,0,0,1,835.47,779.49Zm-372.35-132c34.63,0,69,6.29,105.41,19.14,48.2,17,98,44.39,155.74,76.12l18.19,10c33.81,18.54,65.44,25,93.11,25A183.34,183.34,0,0,0,901,765.5c39.43-15.09,63.76-39,64-39.19l.1-.08c45.83-33.06,88.57-97.1,117.25-175.71,27.53-75.46,36.66-149.93,24.41-199.22-8.8-35.39-28.45-56.18-56.84-60.11-41.86-5.8-90-43.6-150.94-91.46C779.46,105.85,615.73-22.73,378.72,5.61c-176,21-268.3,123.78-314.71,206.25C22.84,285,8.59,356.68,3.88,403.91-2,463.18,3.74,517.3,19.7,552.41,44,605.83,103.64,639.9,197,653.66c92.56,13.64,185.81,2.6,221.61-2.78A299.36,299.36,0,0,1,463.12,647.49Z"/></g></g></svg>