<svg xmlns="http://www.w3.org/2000/svg" viewBox="0 0 848 822.63"><defs><style>.cls-1{fill:#4befb0;}</style></defs><g id="Layer_2" data-name="Layer 2"><g id="Layer_1-2" data-name="Layer 1"><path d="M110,715.39C-.49,692.81-37.82,547.52,44.86,472.62c55.8-50.57,128.29-81.24,186.92-128.42,84.51-68,111.38-188.71,210.22-237.59C527.82,64.17,639.25,64.1,723.78,110,867.19,230.47,898,576.75,754.83,706,602.33,801.3,285.52,745,110,715.39Z"/><path class="cls-1" d="M190.69,822.63q-7.2,0-14.5-.32c-33.78-1.49-62.17-15.21-84.38-40.79C51.18,734.74,34.49,650.39,44.8,544c6.83-70.56,22.84-123.25,47.58-156.62,29.82-40.22,66.68-58.82,109.37-80.35,56.43-28.45,120.38-60.71,187.17-153.17,42.2-58.42,83-101,121.23-126.56C544.69,4.23,575.85-4.29,602.76,2c17.9,4.19,33,14.84,45,31.65,11.6,16.27,19.64,37.49,23.92,63.07,8.78,52.46,4.77,113.11-11.91,180.29-14.91,60-39.43,123.66-72.89,189.12C527,583.28,443.43,695.31,368.73,758.53,318.43,801.1,258.59,822.63,190.69,822.63ZM585.43,2.12c-22.26,0-47.54,9.13-74.14,26.91-38,25.43-78.65,67.84-120.7,126.05C323.5,248,259.31,280.33,202.68,308.89,160.22,330.3,123.56,348.79,94,388.63,69.52,421.69,53.64,474,46.84,544.21,36.59,650,53.11,733.82,93.36,780.18c21.83,25.13,49.72,38.61,82.92,40.07,4.83.22,9.64.32,14.4.32,67.41,0,126.8-21.36,176.73-63.61,74.5-63.05,157.9-174.85,217.66-291.76,71-138.95,101.07-269.69,84.61-368.13C661.13,46,636.56,12,602.29,4A73.9,73.9,0,0,0,585.43,2.12Z"/></g></g></svg>