<svg xmlns="http://www.w3.org/2000/svg" viewBox="0 0 162.06 162.06"><g id="Layer_2" data-name="Layer 2"><g id="Layer_1-2" data-name="Layer 1"><path d="M131.87,17.9c-.67-.54-1.35-1.07-2-1.58L16.32,129.84c.51.68,1,1.36,1.58,2Z"/><path d="M104.14,3.33c-1-.28-1.89-.54-2.84-.78L2.55,101.3c.24,1,.5,1.89.78,2.84Z"/><path d="M123.62,12.05c-.75-.46-1.51-.91-2.27-1.35L10.7,121.35c.44.76.89,1.52,1.35,2.27Z"/><path d="M114.41,7.15c-.84-.37-1.68-.74-2.52-1.09L6.06,111.89c.35.84.72,1.68,1.09,2.52Z"/><path d="M92.56.8C91.49.65,90.41.52,89.34.41L.41,89.34c.11,1.07.24,2.15.39,3.22Z"/><path d="M138.34,23.72l-.91-.89L22.83,137.43l.89.91c.3.31.61.6.91.9L139.24,24.63C138.94,24.33,138.65,24,138.34,23.72Z"/><path d="M79.26,0C78,0,76.73.09,75.47.17L.17,75.47C.09,76.73,0,78,0,79.26Z"/><path d="M2,63.2,63.2,2c-1.64.37-3.26.78-4.87,1.25L3.21,58.33C2.74,59.94,2.33,61.56,2,63.2Z"/><path d="M161.89,86.59c.09-1.26.14-2.52.17-3.79L82.8,162.06c1.27,0,2.53-.08,3.79-.17Z"/><path d="M161.65,72.73c-.11-1.08-.23-2.16-.39-3.23L69.5,161.26c1.07.16,2.15.28,3.23.39Z"/><path d="M39.86,11.19A81.78,81.78,0,0,0,11.19,39.86Z"/><path d="M158.85,103.73q.71-2.42,1.25-4.86L98.87,160.1q2.44-.54,4.86-1.25Z"/><path d="M122.2,150.87a81.78,81.78,0,0,0,28.67-28.67Z"/><path d="M151.36,40.71c-.44-.76-.88-1.51-1.35-2.26L38.45,150c.75.47,1.5.91,2.26,1.35Z"/><path d="M145.75,32.23q-.78-1-1.59-2l-114,114q1,.81,2,1.59Z"/><path d="M159.52,60.76c-.25-.95-.51-1.89-.78-2.83L57.93,158.74c.94.28,1.88.53,2.83.78Z"/><path d="M156,50.18c-.35-.85-.71-1.69-1.09-2.53L47.65,154.91c.84.38,1.68.74,2.53,1.09Z"/></g></g></svg>