<svg xmlns="http://www.w3.org/2000/svg" viewBox="0 0 137.51 107.14"><g id="Layer_2" data-name="Layer 2"><g id="Layer_1-2" data-name="Layer 1"><path d="M109.62,107.14c-9,0-16.83-3.73-23.34-11.1s-9.8-17.33-9.8-29.67A61.79,61.79,0,0,1,89.76,27.66C98.56,16.31,112.64,7.07,131.59.19L132.1,0V8.6l-.25.09c-10.9,4-19.56,10.33-25.74,18.87S96.8,45.08,96.8,54.29a7.87,7.87,0,0,0,.89,4.24,1.4,1.4,0,0,0,1.12.78,4.47,4.47,0,0,0,2.16-1c3.44-2.47,7.85-3.73,13.1-3.73,6.12,0,11.62,2.53,16.34,7.52a25.16,25.16,0,0,1,7.1,17.83,26.38,26.38,0,0,1-8.14,19A26.91,26.91,0,0,1,109.62,107.14ZM131.34,1.08C112.78,7.9,99,17,90.36,28.12A61.08,61.08,0,0,0,77.24,66.37c0,12.15,3.23,22,9.61,29.17s14,10.84,22.77,10.84a26.14,26.14,0,0,0,19.21-8,25.63,25.63,0,0,0,7.92-18.49,24.43,24.43,0,0,0-6.89-17.31c-4.57-4.83-9.88-7.28-15.79-7.28-5.09,0-9.35,1.21-12.66,3.59a5.2,5.2,0,0,1-2.6,1.18A2.12,2.12,0,0,1,97.06,59a8.47,8.47,0,0,1-1-4.66c0-9.37,3.18-18.51,9.46-27.18s14.91-15,25.84-19ZM33.14,107.14c-9,0-16.84-3.73-23.35-11.1S0,78.71,0,66.37A61.77,61.77,0,0,1,13.28,27.66C22.08,16.31,36.15,7.07,55.11.19L55.62,0V8.6l-.25.09c-10.9,4-19.56,10.33-25.74,18.87s-9.31,17.52-9.31,26.73a7.9,7.9,0,0,0,.89,4.24,1.39,1.39,0,0,0,1.11.78,4.48,4.48,0,0,0,2.17-1c3.44-2.47,7.85-3.73,13.1-3.73,6.12,0,11.61,2.53,16.33,7.52A25.16,25.16,0,0,1,61,79.89a26.34,26.34,0,0,1-8.14,19A26.87,26.87,0,0,1,33.14,107.14ZM54.86,1.08C36.3,7.9,22.51,17,13.88,28.12A61,61,0,0,0,.76,66.37c0,12.15,3.23,22,9.6,29.17s14,10.84,22.78,10.84a26.1,26.1,0,0,0,19.2-8,25.59,25.59,0,0,0,7.92-18.49,24.38,24.38,0,0,0-6.89-17.31c-4.57-4.83-9.88-7.28-15.78-7.28-5.09,0-9.35,1.21-12.66,3.59a5.18,5.18,0,0,1-2.61,1.18A2.12,2.12,0,0,1,20.58,59a8.39,8.39,0,0,1-1-4.66c0-9.37,3.18-18.51,9.45-27.18s14.92-15,25.85-19Z"/></g></g></svg>