<svg xmlns="http://www.w3.org/2000/svg" viewBox="0 0 486.72 611.17"><defs><style>.cls-1{fill:#4befb0;}</style></defs><g id="Layer_2" data-name="Layer 2"><g id="Layer_1-2" data-name="Layer 1"><path d="M402.93,55C375.35-12.69,278.32-19.13,240.46,42.49,214.9,84.09,204,133.94,181,176.93c-33.24,62-106.94,93.49-126.29,162.3C37.86,399,51.12,470,90.45,518.37c100.38,110,318.2,55.27,383.47-51.36C516.44,358.46,442.75,163.32,402.93,55Z"/><path class="cls-1" d="M214.35,611.17a282.56,282.56,0,0,1-36.48-2.34c-34.15-4.42-66.19-15.25-92.66-31.32-29.29-17.78-51.85-41.59-67-70.77C-8,449-5.74,374.1,23.87,315.94c18.85-37,52-58.4,84.14-79.07,25-16.08,50.8-32.71,70.31-56.73,14.08-17.35,26.34-37,38.2-56.1,14.32-23,29.12-46.79,47.28-66.7,22.8-25,55.75-34,88.17-24.06,33.64,10.29,57.81,38.89,63.07,74.65v0c3,26.36,9.3,55.6,15.93,86.55,11.52,53.7,24.57,114.55,23.12,174.52-1.67,68.92-22.26,125.88-63,174.12C352.42,585.71,284.44,611.17,214.35,611.17ZM326,30.8c-23,0-44.75,9.55-61.15,27.53-18.08,19.81-32.84,43.53-47.13,66.48-11.88,19.09-24.16,38.84-38.31,56.26-19.65,24.2-45.57,40.89-70.64,57-33.41,21.51-65,41.82-83.64,78.51-29.41,57.77-31.65,132.15-5.69,189.5,29.08,55.81,85.4,91.79,158.58,101.27,81.69,10.59,166.87-15.62,212-65.21,90.9-107.75,62.41-240.61,39.51-347.36-6.64-31-12.92-60.26-16-86.68-5.18-35.18-29-63.32-62-73.45A87.4,87.4,0,0,0,326,30.8Z"/></g></g></svg>