<svg xmlns="http://www.w3.org/2000/svg" viewBox="0 0 190.14 124.17"><g id="Layer_2" data-name="Layer 2"><g id="Layer_1-2" data-name="Layer 1"><path d="M58,0A35.62,35.62,0,0,1,77.77,6.29c11,7.32,23.6,7.32,34.6,0,12.59-8.39,27-8.39,39.63,0,11,7.32,23.61,7.32,34.6,0a2.28,2.28,0,0,1,2.52,3.79c-12.59,8.39-27,8.39-39.64,0-11-7.32-23.6-7.32-34.59,0-12.6,8.39-27,8.39-39.64,0-11-7.32-23.6-7.32-34.6,0-12.59,8.39-27,8.38-39.64,0A2.28,2.28,0,0,1,3.54,6.29c11,7.32,23.6,7.32,34.59,0A35.62,35.62,0,0,1,58,0Z" transform="translate(0 0)"/><path d="M58,35.93a35.62,35.62,0,0,1,19.82,6.29c11,7.33,23.6,7.33,34.6,0,12.59-8.38,27-8.38,39.63,0,11,7.32,23.61,7.32,34.6,0A2.28,2.28,0,0,1,189.12,46c-12.59,8.39-27,8.39-39.64,0-11-7.32-23.6-7.32-34.59,0-12.6,8.39-27,8.39-39.64,0-11-7.32-23.6-7.32-34.6,0C28.06,54.4,13.61,54.4,1,46a2.28,2.28,0,0,1,2.53-3.79c11,7.32,23.6,7.32,34.59,0A35.62,35.62,0,0,1,58,35.93Z" transform="translate(0 0)"/><path d="M58,71.87a35.54,35.54,0,0,1,19.82,6.29c11,7.32,23.6,7.32,34.6,0,12.59-8.39,27-8.39,39.63,0,11,7.32,23.61,7.32,34.6,0a2.27,2.27,0,1,1,2.52,3.78c-12.59,8.39-27,8.39-39.64,0-11-7.32-23.6-7.32-34.59,0-12.6,8.39-27,8.39-39.64,0-11-7.32-23.6-7.32-34.6,0-12.59,8.39-27,8.39-39.64,0a2.27,2.27,0,1,1,2.53-3.78c11,7.31,23.6,7.32,34.59,0A35.54,35.54,0,0,1,58,71.87Z" transform="translate(0 0)"/><path d="M58,107.8a35.62,35.62,0,0,1,19.82,6.29c11,7.32,23.6,7.32,34.6,0,12.59-8.39,27-8.39,39.63,0,11,7.32,23.61,7.32,34.6,0a2.28,2.28,0,0,1,2.52,3.79c-12.59,8.38-27,8.38-39.64,0-11-7.33-23.6-7.33-34.59,0-12.6,8.38-27,8.38-39.64,0-11-7.32-23.6-7.33-34.6,0-12.59,8.38-27,8.38-39.64,0a2.28,2.28,0,1,1,2.53-3.79c11,7.32,23.6,7.32,34.59,0A35.62,35.62,0,0,1,58,107.8Z" transform="translate(0 0)"/></g></g></svg>